# xmcd
#
# Track frame offsets:
# 150
# 12812
# 30827
# 46347
# 63235
# 80852
# 94112
# 117255
# 130887
# 149637
# 168097
# 186607
# 199182
#
# Disc length: 2980 seconds
#
#
# Revision: 1
# Processed by: cddbd v1.5.1PL2 Copyright (c) Steve Scherf et al.
# Submitted via: FreeRIP 2.941 
#
DISCID=b20ba20d
DTITLE=Johnny Sansone - Watermelon Patch
DYEAR=1998
DGENRE=Blues
TTITLE0=Think of Me
TTITLE1=Watermelon Patch
TTITLE2=Look at Us Now
TTITLE3=Quagmire
TTITLE4=Comin' For Sure
TTITLE5=Mon Fleur
TTITLE6=The Bridge
TTITLE7=Pig's Feet and Tail Meat
TTITLE8=Civilized City
TTITLE9=Loveline
TTITLE10=Upside of Low Down
TTITLE11=Stink Bait
TTITLE12=Neutral Ground
EXTD=As heard on BluesfestRadio.com
EXTT0=
EXTT1=
EXTT2=
EXTT3=
EXTT4=
EXTT5=
EXTT6=
EXTT7=
EXTT8=
EXTT9=
EXTT10=
EXTT11=
EXTT12=
PLAYORDER=
